<mxfile host="app.diagrams.net" modified="2023-09-21T22:28:04.874Z" agent="Mozilla/5.0 (Windows NT 10.0; Win64; x64) AppleWebKit/537.36 (KHTML, like Gecko) Chrome/116.0.0.0 Safari/537.36" etag="SeOGQydSVS6L7fwcCzbH" version="21.8.0" type="device">
  <diagram name="Страница — 1" id="VXsmKj18v7rsjrFNFDgO">
    <mxGraphModel dx="3521" dy="2352" grid="1" gridSize="10" guides="1" tooltips="1" connect="1" arrows="1" fold="1" page="1" pageScale="1" pageWidth="827" pageHeight="1169" math="0" shadow="0">
      <root>
        <mxCell id="0" />
        <mxCell id="1" parent="0" />
        <mxCell id="ml_u1-zQLclD2FH7gfV2-1" value="Guest" style="shape=umlActor;verticalLabelPosition=bottom;verticalAlign=top;html=1;outlineConnect=0;" parent="1" vertex="1">
          <mxGeometry x="-230" y="120" width="50" height="100" as="geometry" />
        </mxCell>
        <mxCell id="ml_u1-zQLclD2FH7gfV2-6" value="Авторизация" style="ellipse;whiteSpace=wrap;html=1;" parent="1" vertex="1">
          <mxGeometry x="-100" y="140" width="160" height="80" as="geometry" />
        </mxCell>
        <mxCell id="ml_u1-zQLclD2FH7gfV2-7" value="" style="endArrow=none;html=1;rounded=0;entryX=0;entryY=0.5;entryDx=0;entryDy=0;" parent="1" target="ml_u1-zQLclD2FH7gfV2-6" edge="1">
          <mxGeometry width="50" height="50" relative="1" as="geometry">
            <mxPoint x="-190" y="170" as="sourcePoint" />
            <mxPoint x="-30" y="360" as="targetPoint" />
          </mxGeometry>
        </mxCell>
        <mxCell id="ml_u1-zQLclD2FH7gfV2-8" value="Регистрация" style="ellipse;whiteSpace=wrap;html=1;" parent="1" vertex="1">
          <mxGeometry x="-470" y="140" width="160" height="80" as="geometry" />
        </mxCell>
        <mxCell id="ml_u1-zQLclD2FH7gfV2-9" value="" style="endArrow=none;html=1;rounded=0;exitX=1;exitY=0.5;exitDx=0;exitDy=0;" parent="1" source="ml_u1-zQLclD2FH7gfV2-8" edge="1">
          <mxGeometry width="50" height="50" relative="1" as="geometry">
            <mxPoint x="-195" y="180" as="sourcePoint" />
            <mxPoint x="-230" y="170" as="targetPoint" />
          </mxGeometry>
        </mxCell>
        <mxCell id="ml_u1-zQLclD2FH7gfV2-10" value="Customer" style="shape=umlActor;verticalLabelPosition=bottom;verticalAlign=top;html=1;outlineConnect=0;" parent="1" vertex="1">
          <mxGeometry x="-460" y="400" width="50" height="100" as="geometry" />
        </mxCell>
        <mxCell id="ml_u1-zQLclD2FH7gfV2-11" value="" style="endArrow=none;html=1;rounded=0;" parent="1" edge="1">
          <mxGeometry width="50" height="50" relative="1" as="geometry">
            <mxPoint x="-540" y="510" as="sourcePoint" />
            <mxPoint x="-450" y="460" as="targetPoint" />
          </mxGeometry>
        </mxCell>
        <mxCell id="ml_u1-zQLclD2FH7gfV2-12" value="Совершение платежей" style="ellipse;whiteSpace=wrap;html=1;" parent="1" vertex="1">
          <mxGeometry x="-690" y="480" width="160" height="80" as="geometry" />
        </mxCell>
        <mxCell id="ml_u1-zQLclD2FH7gfV2-13" value="Оставить отзыв" style="ellipse;whiteSpace=wrap;html=1;" parent="1" vertex="1">
          <mxGeometry x="-360" y="490" width="160" height="80" as="geometry" />
        </mxCell>
        <mxCell id="ml_u1-zQLclD2FH7gfV2-14" value="" style="endArrow=none;html=1;rounded=0;exitX=0;exitY=0;exitDx=0;exitDy=0;" parent="1" source="ml_u1-zQLclD2FH7gfV2-13" edge="1">
          <mxGeometry width="50" height="50" relative="1" as="geometry">
            <mxPoint x="-530" y="520" as="sourcePoint" />
            <mxPoint x="-420" y="460" as="targetPoint" />
          </mxGeometry>
        </mxCell>
        <mxCell id="ml_u1-zQLclD2FH7gfV2-15" value="Оформление и отслеживание заказа" style="ellipse;whiteSpace=wrap;html=1;" parent="1" vertex="1">
          <mxGeometry x="-370" y="380" width="160" height="80" as="geometry" />
        </mxCell>
        <mxCell id="ml_u1-zQLclD2FH7gfV2-16" value="" style="endArrow=none;html=1;rounded=0;exitX=0;exitY=0.5;exitDx=0;exitDy=0;" parent="1" source="ml_u1-zQLclD2FH7gfV2-15" edge="1">
          <mxGeometry width="50" height="50" relative="1" as="geometry">
            <mxPoint x="-327" y="512" as="sourcePoint" />
            <mxPoint x="-420" y="450" as="targetPoint" />
          </mxGeometry>
        </mxCell>
        <mxCell id="ml_u1-zQLclD2FH7gfV2-17" value="Просмотр доступных водителей и транспортных средств" style="ellipse;whiteSpace=wrap;html=1;" parent="1" vertex="1">
          <mxGeometry x="-690" y="360" width="160" height="80" as="geometry" />
        </mxCell>
        <mxCell id="ml_u1-zQLclD2FH7gfV2-18" value="" style="endArrow=none;html=1;rounded=0;exitX=1;exitY=1;exitDx=0;exitDy=0;" parent="1" source="ml_u1-zQLclD2FH7gfV2-17" target="ml_u1-zQLclD2FH7gfV2-10" edge="1">
          <mxGeometry width="50" height="50" relative="1" as="geometry">
            <mxPoint x="-530" y="520" as="sourcePoint" />
            <mxPoint x="-440" y="470" as="targetPoint" />
          </mxGeometry>
        </mxCell>
        <mxCell id="ml_u1-zQLclD2FH7gfV2-19" value="Управление личными данными" style="ellipse;whiteSpace=wrap;html=1;" parent="1" vertex="1">
          <mxGeometry x="-643" y="620" width="160" height="80" as="geometry" />
        </mxCell>
        <mxCell id="ml_u1-zQLclD2FH7gfV2-20" value="" style="endArrow=none;html=1;rounded=0;exitX=0.5;exitY=0;exitDx=0;exitDy=0;" parent="1" source="ml_u1-zQLclD2FH7gfV2-19" edge="1">
          <mxGeometry width="50" height="50" relative="1" as="geometry">
            <mxPoint x="-390" y="620" as="sourcePoint" />
            <mxPoint x="-470" y="490" as="targetPoint" />
          </mxGeometry>
        </mxCell>
        <mxCell id="ml_u1-zQLclD2FH7gfV2-21" value="" style="endArrow=none;html=1;rounded=0;" parent="1" edge="1">
          <mxGeometry width="50" height="50" relative="1" as="geometry">
            <mxPoint x="-360" y="630" as="sourcePoint" />
            <mxPoint x="-400" y="490" as="targetPoint" />
          </mxGeometry>
        </mxCell>
        <mxCell id="ml_u1-zQLclD2FH7gfV2-22" value="Просмотр истории заказов" style="ellipse;whiteSpace=wrap;html=1;" parent="1" vertex="1">
          <mxGeometry x="-420" y="630" width="160" height="80" as="geometry" />
        </mxCell>
        <mxCell id="ml_u1-zQLclD2FH7gfV2-24" value="include" style="endArrow=open;endSize=12;dashed=1;html=1;rounded=0;entryX=1;entryY=0.5;entryDx=0;entryDy=0;exitX=0;exitY=0.5;exitDx=0;exitDy=0;" parent="1" source="ml_u1-zQLclD2FH7gfV2-25" target="ml_u1-zQLclD2FH7gfV2-15" edge="1">
          <mxGeometry width="160" relative="1" as="geometry">
            <mxPoint x="-80" y="420" as="sourcePoint" />
            <mxPoint x="-280" y="590" as="targetPoint" />
          </mxGeometry>
        </mxCell>
        <mxCell id="ml_u1-zQLclD2FH7gfV2-25" value="Отмена заказа" style="ellipse;whiteSpace=wrap;html=1;" parent="1" vertex="1">
          <mxGeometry x="-130" y="380" width="160" height="80" as="geometry" />
        </mxCell>
        <mxCell id="ml_u1-zQLclD2FH7gfV2-27" value="Admin" style="shape=umlActor;verticalLabelPosition=bottom;verticalAlign=top;html=1;outlineConnect=0;" parent="1" vertex="1">
          <mxGeometry x="736" y="250" width="50" height="100" as="geometry" />
        </mxCell>
        <mxCell id="ml_u1-zQLclD2FH7gfV2-28" value="Просмотр и управление платежами" style="ellipse;whiteSpace=wrap;html=1;" parent="1" vertex="1">
          <mxGeometry x="516" y="190" width="160" height="80" as="geometry" />
        </mxCell>
        <mxCell id="ml_u1-zQLclD2FH7gfV2-30" value="" style="endArrow=none;html=1;rounded=0;entryX=1;entryY=1;entryDx=0;entryDy=0;" parent="1" edge="1">
          <mxGeometry width="50" height="50" relative="1" as="geometry">
            <mxPoint x="726" y="310" as="sourcePoint" />
            <mxPoint x="652.5685424949147" y="258.2842712474571" as="targetPoint" />
          </mxGeometry>
        </mxCell>
        <mxCell id="ml_u1-zQLclD2FH7gfV2-31" value="" style="endArrow=none;html=1;rounded=0;" parent="1" edge="1">
          <mxGeometry width="50" height="50" relative="1" as="geometry">
            <mxPoint x="806" y="320" as="sourcePoint" />
            <mxPoint x="966" y="260" as="targetPoint" />
          </mxGeometry>
        </mxCell>
        <mxCell id="ml_u1-zQLclD2FH7gfV2-33" value="Управление пользователями" style="ellipse;whiteSpace=wrap;html=1;" parent="1" vertex="1">
          <mxGeometry x="946" y="200" width="160" height="80" as="geometry" />
        </mxCell>
        <mxCell id="ml_u1-zQLclD2FH7gfV2-34" value="include" style="endArrow=open;endSize=12;dashed=1;html=1;rounded=0;entryX=0.454;entryY=-0.015;entryDx=0;entryDy=0;entryPerimeter=0;" parent="1" target="ml_u1-zQLclD2FH7gfV2-33" edge="1">
          <mxGeometry width="160" relative="1" as="geometry">
            <mxPoint x="976" y="140" as="sourcePoint" />
            <mxPoint x="1006" y="150" as="targetPoint" />
          </mxGeometry>
        </mxCell>
        <mxCell id="ml_u1-zQLclD2FH7gfV2-35" value="Добавить пользователя" style="ellipse;whiteSpace=wrap;html=1;" parent="1" vertex="1">
          <mxGeometry x="876" y="60" width="160" height="80" as="geometry" />
        </mxCell>
        <mxCell id="ml_u1-zQLclD2FH7gfV2-36" value="include" style="endArrow=open;endSize=12;dashed=1;html=1;rounded=0;entryX=0.454;entryY=-0.015;entryDx=0;entryDy=0;entryPerimeter=0;exitX=0.322;exitY=0.956;exitDx=0;exitDy=0;exitPerimeter=0;" parent="1" source="ml_u1-zQLclD2FH7gfV2-37" edge="1">
          <mxGeometry width="160" relative="1" as="geometry">
            <mxPoint x="1083" y="141" as="sourcePoint" />
            <mxPoint x="1053" y="200" as="targetPoint" />
          </mxGeometry>
        </mxCell>
        <mxCell id="ml_u1-zQLclD2FH7gfV2-37" value="Удалить пользователя" style="ellipse;whiteSpace=wrap;html=1;" parent="1" vertex="1">
          <mxGeometry x="1053" y="60" width="160" height="80" as="geometry" />
        </mxCell>
        <mxCell id="ml_u1-zQLclD2FH7gfV2-38" value="include" style="endArrow=open;endSize=12;dashed=1;html=1;rounded=0;entryX=1;entryY=0.5;entryDx=0;entryDy=0;exitX=0.097;exitY=0.794;exitDx=0;exitDy=0;exitPerimeter=0;" parent="1" source="ml_u1-zQLclD2FH7gfV2-39" target="ml_u1-zQLclD2FH7gfV2-33" edge="1">
          <mxGeometry width="160" relative="1" as="geometry">
            <mxPoint x="1206" y="221" as="sourcePoint" />
            <mxPoint x="1176" y="280" as="targetPoint" />
          </mxGeometry>
        </mxCell>
        <mxCell id="ml_u1-zQLclD2FH7gfV2-39" value="Редактировать пользователя" style="ellipse;whiteSpace=wrap;html=1;" parent="1" vertex="1">
          <mxGeometry x="1176" y="130" width="160" height="80" as="geometry" />
        </mxCell>
        <mxCell id="ml_u1-zQLclD2FH7gfV2-40" value="" style="endArrow=none;html=1;rounded=0;" parent="1" edge="1">
          <mxGeometry width="50" height="50" relative="1" as="geometry">
            <mxPoint x="756" y="230" as="sourcePoint" />
            <mxPoint x="756" y="70" as="targetPoint" />
          </mxGeometry>
        </mxCell>
        <mxCell id="ml_u1-zQLclD2FH7gfV2-41" value="Управление транспортом" style="ellipse;whiteSpace=wrap;html=1;" parent="1" vertex="1">
          <mxGeometry x="676" width="160" height="80" as="geometry" />
        </mxCell>
        <mxCell id="ml_u1-zQLclD2FH7gfV2-42" value="include" style="endArrow=open;endSize=12;dashed=1;html=1;rounded=0;entryX=0.454;entryY=-0.015;entryDx=0;entryDy=0;entryPerimeter=0;" parent="1" edge="1">
          <mxGeometry width="160" relative="1" as="geometry">
            <mxPoint x="660" y="-50" as="sourcePoint" />
            <mxPoint x="703" y="9" as="targetPoint" />
          </mxGeometry>
        </mxCell>
        <mxCell id="ml_u1-zQLclD2FH7gfV2-43" value="Добавить транспорт" style="ellipse;whiteSpace=wrap;html=1;" parent="1" vertex="1">
          <mxGeometry x="560" y="-130" width="160" height="80" as="geometry" />
        </mxCell>
        <mxCell id="ml_u1-zQLclD2FH7gfV2-44" value="include" style="endArrow=open;endSize=12;dashed=1;html=1;rounded=0;entryX=0.649;entryY=0.02;entryDx=0;entryDy=0;exitX=0.369;exitY=0.983;exitDx=0;exitDy=0;exitPerimeter=0;entryPerimeter=0;" parent="1" source="ml_u1-zQLclD2FH7gfV2-45" target="ml_u1-zQLclD2FH7gfV2-41" edge="1">
          <mxGeometry width="160" relative="1" as="geometry">
            <mxPoint x="836" y="-50" as="sourcePoint" />
            <mxPoint x="879" y="9" as="targetPoint" />
          </mxGeometry>
        </mxCell>
        <mxCell id="ml_u1-zQLclD2FH7gfV2-45" value="Снять транспорт с эксплуатации" style="ellipse;whiteSpace=wrap;html=1;" parent="1" vertex="1">
          <mxGeometry x="736" y="-130" width="160" height="80" as="geometry" />
        </mxCell>
        <mxCell id="ml_u1-zQLclD2FH7gfV2-46" value="include" style="endArrow=open;endSize=12;dashed=1;html=1;rounded=0;entryX=0.936;entryY=0.27;entryDx=0;entryDy=0;exitX=0.369;exitY=0.983;exitDx=0;exitDy=0;exitPerimeter=0;entryPerimeter=0;" parent="1" source="ml_u1-zQLclD2FH7gfV2-47" target="ml_u1-zQLclD2FH7gfV2-41" edge="1">
          <mxGeometry width="160" relative="1" as="geometry">
            <mxPoint x="986" y="-10" as="sourcePoint" />
            <mxPoint x="906" y="40" as="targetPoint" />
          </mxGeometry>
        </mxCell>
        <mxCell id="ml_u1-zQLclD2FH7gfV2-47" value="Редактировать транспорт" style="ellipse;whiteSpace=wrap;html=1;" parent="1" vertex="1">
          <mxGeometry x="886" y="-90" width="160" height="80" as="geometry" />
        </mxCell>
        <mxCell id="ml_u1-zQLclD2FH7gfV2-48" value="Driver" style="shape=umlActor;verticalLabelPosition=bottom;verticalAlign=top;html=1;outlineConnect=0;" parent="1" vertex="1">
          <mxGeometry x="170" y="360" width="50" height="100" as="geometry" />
        </mxCell>
        <mxCell id="ml_u1-zQLclD2FH7gfV2-49" value="Extends" style="endArrow=block;endSize=16;endFill=0;html=1;rounded=0;" parent="1" edge="1">
          <mxGeometry width="160" relative="1" as="geometry">
            <mxPoint x="-210" y="250" as="sourcePoint" />
            <mxPoint x="-420" y="370" as="targetPoint" />
          </mxGeometry>
        </mxCell>
        <mxCell id="ml_u1-zQLclD2FH7gfV2-50" value="Extends" style="endArrow=block;endSize=16;endFill=0;html=1;rounded=0;" parent="1" edge="1">
          <mxGeometry width="160" relative="1" as="geometry">
            <mxPoint x="-170" y="250" as="sourcePoint" />
            <mxPoint x="150" y="350" as="targetPoint" />
          </mxGeometry>
        </mxCell>
        <mxCell id="ml_u1-zQLclD2FH7gfV2-51" value="Подтверждение доступности" style="ellipse;whiteSpace=wrap;html=1;" parent="1" vertex="1">
          <mxGeometry x="280" y="380" width="160" height="80" as="geometry" />
        </mxCell>
        <mxCell id="ml_u1-zQLclD2FH7gfV2-52" value="" style="endArrow=none;html=1;rounded=0;entryX=0;entryY=0.5;entryDx=0;entryDy=0;" parent="1" source="ml_u1-zQLclD2FH7gfV2-48" target="ml_u1-zQLclD2FH7gfV2-51" edge="1">
          <mxGeometry width="50" height="50" relative="1" as="geometry">
            <mxPoint x="250" y="490" as="sourcePoint" />
            <mxPoint x="300" y="440" as="targetPoint" />
          </mxGeometry>
        </mxCell>
        <mxCell id="ml_u1-zQLclD2FH7gfV2-53" value="Просмотр и принятие заказов" style="ellipse;whiteSpace=wrap;html=1;" parent="1" vertex="1">
          <mxGeometry x="270" y="480" width="160" height="80" as="geometry" />
        </mxCell>
        <mxCell id="ml_u1-zQLclD2FH7gfV2-54" value="" style="endArrow=none;html=1;rounded=0;entryX=0;entryY=0;entryDx=0;entryDy=0;" parent="1" target="ml_u1-zQLclD2FH7gfV2-53" edge="1">
          <mxGeometry width="50" height="50" relative="1" as="geometry">
            <mxPoint x="230" y="440" as="sourcePoint" />
            <mxPoint x="290" y="430" as="targetPoint" />
          </mxGeometry>
        </mxCell>
        <mxCell id="ml_u1-zQLclD2FH7gfV2-55" value="Получение уведомлений о заказах" style="ellipse;whiteSpace=wrap;html=1;" parent="1" vertex="1">
          <mxGeometry x="130" y="570" width="160" height="80" as="geometry" />
        </mxCell>
        <mxCell id="ml_u1-zQLclD2FH7gfV2-56" value="" style="endArrow=none;html=1;rounded=0;exitX=0.5;exitY=0;exitDx=0;exitDy=0;" parent="1" source="ml_u1-zQLclD2FH7gfV2-55" edge="1">
          <mxGeometry width="50" height="50" relative="1" as="geometry">
            <mxPoint x="60" y="630" as="sourcePoint" />
            <mxPoint x="195" y="500" as="targetPoint" />
          </mxGeometry>
        </mxCell>
        <mxCell id="ml_u1-zQLclD2FH7gfV2-57" value="Просмотр отчетов и статистики" style="ellipse;whiteSpace=wrap;html=1;" parent="1" vertex="1">
          <mxGeometry x="-50" y="500" width="160" height="80" as="geometry" />
        </mxCell>
        <mxCell id="ml_u1-zQLclD2FH7gfV2-58" value="" style="endArrow=none;html=1;rounded=0;exitX=0.76;exitY=0.065;exitDx=0;exitDy=0;exitPerimeter=0;" parent="1" source="ml_u1-zQLclD2FH7gfV2-57" edge="1">
          <mxGeometry width="50" height="50" relative="1" as="geometry">
            <mxPoint x="60" y="720" as="sourcePoint" />
            <mxPoint x="160" y="420" as="targetPoint" />
          </mxGeometry>
        </mxCell>
        <mxCell id="ml_u1-zQLclD2FH7gfV2-59" value="" style="endArrow=none;html=1;rounded=0;" parent="1" edge="1">
          <mxGeometry width="50" height="50" relative="1" as="geometry">
            <mxPoint x="80" y="610" as="sourcePoint" />
            <mxPoint x="160" y="490" as="targetPoint" />
          </mxGeometry>
        </mxCell>
        <mxCell id="ml_u1-zQLclD2FH7gfV2-60" value="Предоставление информации о транспорте" style="ellipse;whiteSpace=wrap;html=1;" parent="1" vertex="1">
          <mxGeometry x="-45" y="600" width="160" height="80" as="geometry" />
        </mxCell>
        <mxCell id="qE9lVxydDgMw5gsuQjgU-1" value="Manager" style="shape=umlActor;verticalLabelPosition=bottom;verticalAlign=top;html=1;outlineConnect=0;" vertex="1" parent="1">
          <mxGeometry x="1136" y="770" width="50" height="100" as="geometry" />
        </mxCell>
        <mxCell id="qE9lVxydDgMw5gsuQjgU-2" value="Просмотр информации заказа" style="ellipse;whiteSpace=wrap;html=1;" vertex="1" parent="1">
          <mxGeometry x="856" y="850" width="160" height="80" as="geometry" />
        </mxCell>
        <mxCell id="qE9lVxydDgMw5gsuQjgU-3" value="" style="endArrow=none;html=1;rounded=0;exitX=1;exitY=0.5;exitDx=0;exitDy=0;" edge="1" parent="1" source="qE9lVxydDgMw5gsuQjgU-2">
          <mxGeometry width="50" height="50" relative="1" as="geometry">
            <mxPoint x="916" y="730" as="sourcePoint" />
            <mxPoint x="1126" y="820" as="targetPoint" />
          </mxGeometry>
        </mxCell>
        <mxCell id="qE9lVxydDgMw5gsuQjgU-4" value="" style="endArrow=none;html=1;rounded=0;" edge="1" parent="1">
          <mxGeometry width="50" height="50" relative="1" as="geometry">
            <mxPoint x="1116" y="460" as="sourcePoint" />
            <mxPoint x="806" y="360" as="targetPoint" />
          </mxGeometry>
        </mxCell>
        <mxCell id="qE9lVxydDgMw5gsuQjgU-5" value="" style="endArrow=none;html=1;rounded=0;" edge="1" parent="1">
          <mxGeometry width="50" height="50" relative="1" as="geometry">
            <mxPoint x="1156" y="740" as="sourcePoint" />
            <mxPoint x="1116" y="510" as="targetPoint" />
          </mxGeometry>
        </mxCell>
        <mxCell id="qE9lVxydDgMw5gsuQjgU-6" value="Управление заказами" style="ellipse;whiteSpace=wrap;html=1;" vertex="1" parent="1">
          <mxGeometry x="1076" y="450" width="160" height="80" as="geometry" />
        </mxCell>
        <mxCell id="qE9lVxydDgMw5gsuQjgU-7" value="include" style="endArrow=open;endSize=12;dashed=1;html=1;rounded=0;entryX=0.544;entryY=-0.05;entryDx=0;entryDy=0;entryPerimeter=0;exitX=0.5;exitY=1;exitDx=0;exitDy=0;" edge="1" parent="1" source="qE9lVxydDgMw5gsuQjgU-8" target="qE9lVxydDgMw5gsuQjgU-6">
          <mxGeometry width="160" relative="1" as="geometry">
            <mxPoint x="1206" y="390" as="sourcePoint" />
            <mxPoint x="1249" y="449" as="targetPoint" />
          </mxGeometry>
        </mxCell>
        <mxCell id="qE9lVxydDgMw5gsuQjgU-8" value="Добавить заказ" style="ellipse;whiteSpace=wrap;html=1;" vertex="1" parent="1">
          <mxGeometry x="1076" y="310" width="160" height="80" as="geometry" />
        </mxCell>
        <mxCell id="qE9lVxydDgMw5gsuQjgU-9" value="include" style="endArrow=open;endSize=12;dashed=1;html=1;rounded=0;entryX=1;entryY=0;entryDx=0;entryDy=0;" edge="1" source="qE9lVxydDgMw5gsuQjgU-10" parent="1" target="qE9lVxydDgMw5gsuQjgU-6">
          <mxGeometry width="160" relative="1" as="geometry">
            <mxPoint x="1313" y="391" as="sourcePoint" />
            <mxPoint x="1283" y="450" as="targetPoint" />
          </mxGeometry>
        </mxCell>
        <mxCell id="qE9lVxydDgMw5gsuQjgU-10" value="Удалить заказ" style="ellipse;whiteSpace=wrap;html=1;" vertex="1" parent="1">
          <mxGeometry x="1246" y="330" width="160" height="80" as="geometry" />
        </mxCell>
        <mxCell id="qE9lVxydDgMw5gsuQjgU-11" value="Изменение заказа" style="ellipse;whiteSpace=wrap;html=1;" vertex="1" parent="1">
          <mxGeometry x="1350" y="420" width="160" height="80" as="geometry" />
        </mxCell>
        <mxCell id="qE9lVxydDgMw5gsuQjgU-12" value="include" style="endArrow=open;endSize=12;dashed=1;html=1;rounded=0;entryX=1;entryY=0.5;entryDx=0;entryDy=0;exitX=0.013;exitY=0.613;exitDx=0;exitDy=0;exitPerimeter=0;" edge="1" parent="1" target="qE9lVxydDgMw5gsuQjgU-6">
          <mxGeometry width="160" relative="1" as="geometry">
            <mxPoint x="1348.08" y="469.03999999999996" as="sourcePoint" />
            <mxPoint x="1223" y="472" as="targetPoint" />
          </mxGeometry>
        </mxCell>
        <mxCell id="qE9lVxydDgMw5gsuQjgU-13" value="Консультация пользователей" style="ellipse;whiteSpace=wrap;html=1;" vertex="1" parent="1">
          <mxGeometry x="1266" y="890" width="160" height="80" as="geometry" />
        </mxCell>
        <mxCell id="qE9lVxydDgMw5gsuQjgU-14" value="" style="endArrow=none;html=1;rounded=0;exitX=0;exitY=0.5;exitDx=0;exitDy=0;" edge="1" parent="1" source="qE9lVxydDgMw5gsuQjgU-13" target="qE9lVxydDgMw5gsuQjgU-1">
          <mxGeometry width="50" height="50" relative="1" as="geometry">
            <mxPoint x="1026" y="900" as="sourcePoint" />
            <mxPoint x="1136" y="830" as="targetPoint" />
          </mxGeometry>
        </mxCell>
        <mxCell id="qE9lVxydDgMw5gsuQjgU-15" value="Управление водителями" style="ellipse;whiteSpace=wrap;html=1;" vertex="1" parent="1">
          <mxGeometry x="696" y="500" width="160" height="80" as="geometry" />
        </mxCell>
        <mxCell id="qE9lVxydDgMw5gsuQjgU-16" value="" style="endArrow=none;html=1;rounded=0;entryX=0.5;entryY=0;entryDx=0;entryDy=0;" edge="1" parent="1" target="qE9lVxydDgMw5gsuQjgU-15">
          <mxGeometry width="50" height="50" relative="1" as="geometry">
            <mxPoint x="756" y="380" as="sourcePoint" />
            <mxPoint x="663" y="268" as="targetPoint" />
          </mxGeometry>
        </mxCell>
        <mxCell id="qE9lVxydDgMw5gsuQjgU-17" value="include" style="endArrow=open;endSize=12;dashed=1;html=1;rounded=0;entryX=0.544;entryY=-0.05;entryDx=0;entryDy=0;entryPerimeter=0;exitX=0.5;exitY=0;exitDx=0;exitDy=0;" edge="1" parent="1" source="qE9lVxydDgMw5gsuQjgU-18">
          <mxGeometry width="160" relative="1" as="geometry">
            <mxPoint x="706" y="642" as="sourcePoint" />
            <mxPoint x="743" y="578" as="targetPoint" />
          </mxGeometry>
        </mxCell>
        <mxCell id="qE9lVxydDgMw5gsuQjgU-18" value="Добавление водителя" style="ellipse;whiteSpace=wrap;html=1;" vertex="1" parent="1">
          <mxGeometry x="560" y="620" width="160" height="80" as="geometry" />
        </mxCell>
        <mxCell id="qE9lVxydDgMw5gsuQjgU-19" value="Удаление водителя" style="ellipse;whiteSpace=wrap;html=1;" vertex="1" parent="1">
          <mxGeometry x="736" y="640" width="160" height="80" as="geometry" />
        </mxCell>
        <mxCell id="qE9lVxydDgMw5gsuQjgU-20" value="include" style="endArrow=open;endSize=12;dashed=1;html=1;rounded=0;entryX=0.641;entryY=1.02;entryDx=0;entryDy=0;exitX=0.438;exitY=0;exitDx=0;exitDy=0;exitPerimeter=0;entryPerimeter=0;" edge="1" parent="1" source="qE9lVxydDgMw5gsuQjgU-19" target="qE9lVxydDgMw5gsuQjgU-15">
          <mxGeometry width="160" relative="1" as="geometry">
            <mxPoint x="650" y="630" as="sourcePoint" />
            <mxPoint x="753" y="588" as="targetPoint" />
          </mxGeometry>
        </mxCell>
        <mxCell id="qE9lVxydDgMw5gsuQjgU-21" value="Получение информации от водителей об состоянии транспорта" style="ellipse;whiteSpace=wrap;html=1;" vertex="1" parent="1">
          <mxGeometry x="916" y="600" width="180" height="80" as="geometry" />
        </mxCell>
        <mxCell id="qE9lVxydDgMw5gsuQjgU-22" value="include" style="endArrow=open;endSize=12;dashed=1;html=1;rounded=0;entryX=1;entryY=1;entryDx=0;entryDy=0;exitX=0;exitY=0;exitDx=0;exitDy=0;" edge="1" parent="1" source="qE9lVxydDgMw5gsuQjgU-21" target="qE9lVxydDgMw5gsuQjgU-15">
          <mxGeometry width="160" relative="1" as="geometry">
            <mxPoint x="816" y="650" as="sourcePoint" />
            <mxPoint x="809" y="592" as="targetPoint" />
          </mxGeometry>
        </mxCell>
        <mxCell id="qE9lVxydDgMw5gsuQjgU-24" value="include" style="endArrow=open;endSize=12;dashed=1;html=1;rounded=0;entryX=1;entryY=0.5;entryDx=0;entryDy=0;exitX=0;exitY=0.5;exitDx=0;exitDy=0;" edge="1" parent="1">
          <mxGeometry width="160" relative="1" as="geometry">
            <mxPoint x="520" y="420" as="sourcePoint" />
            <mxPoint x="440" y="420" as="targetPoint" />
          </mxGeometry>
        </mxCell>
        <mxCell id="qE9lVxydDgMw5gsuQjgU-25" value="Отклонение доступности" style="ellipse;whiteSpace=wrap;html=1;" vertex="1" parent="1">
          <mxGeometry x="520" y="380" width="160" height="80" as="geometry" />
        </mxCell>
      </root>
    </mxGraphModel>
  </diagram>
</mxfile>
